<svg xmlns="http://www.w3.org/2000/svg" height="1200" width="1600" version="1.1" xmlns:xlink="http://www.w3.org/1999/xlink" xmlns:svgjs="http://svgjs.com/svgjs"><rect fill="#ffffff" width="1600" height="1200"></rect><g><path d="M316.8 193.78H985.37C1015.94 193.78 1040.75 218.59 1040.75 249.16V665.99C1040.75 696.56 1015.94 721.37 985.37 721.37H316.8C286.23 721.37 261.43 696.56 261.43 665.99V248.98C261.43 218.59 286.23 193.78 316.8 193.78Z" fill="#ffffff" opacity="1" stroke-width="4" stroke="#000000"></path><path d="M338.82 246.19H963.18C976.98 246.19 988.17 257.37 988.17 271.17V643.97C988.17 657.78 976.98 668.96 963.18 668.96H338.82C325.02 668.96 313.83 657.78 313.83 643.97V271.17C313.83 257.37 325.02 246.19 338.82 246.19Z" fill="#ffffff" opacity="1" stroke-width="4" stroke="#000000"></path></g><g><path d="M895.11 871.59L904.2 995.02C904.47 998.6 901.81 1001.63 898.23 1001.91 898.05 1001.91 897.95 1001.91 897.77 1001.91 895.02 1001.91 892.54 1000.16 891.71 997.5L850.23 871.59H895.11Z" fill="#4b49df" opacity="1" stroke-width="4" stroke="#000000"></path><path d="M989.64 871.59L1022.86 994.11C1023.78 997.32 1021.85 1000.62 1018.64 1001.54 1018.09 1001.72 1017.63 1001.72 1017.08 1001.72 1014.87 1001.72 1012.76 1000.44 1011.75 998.51L944.76 871.59H989.64Z" fill="#4b49df" opacity="1" stroke-width="4" stroke="#000000"></path><path d="M872.17 833.96H1320.94L1354.99 728.24C1363.06 703.18 1349.3 676.39 1324.24 668.31 1319.56 666.75 1314.61 666.02 1309.65 666.02H961C940.35 666.02 922 679.32 915.67 699.06L872.17 833.96Z" fill="#4b49df" opacity="1" stroke-width="4" stroke="#000000"></path><path d="M1316.35 871.59L1349.57 994.11C1350.49 997.32 1348.56 1000.62 1345.35 1001.54 1344.8 1001.72 1344.34 1001.72 1343.79 1001.72 1341.59 1001.72 1339.48 1000.44 1338.47 998.51L1271.47 871.59H1316.35Z" fill="#4b49df" opacity="1" stroke-width="4" stroke="#000000"></path><path d="M1221.82 871.59L1230.91 995.02C1231.18 998.6 1228.52 1001.63 1224.94 1001.91 1224.76 1001.91 1224.67 1001.91 1224.48 1001.91 1221.73 1001.91 1219.25 1000.16 1218.43 997.5L1176.95 871.59H1221.82Z" fill="#4b49df" opacity="1" stroke-width="4" stroke="#000000"></path><path d="M1176.95 871.59H1221.82L1224.03 900.96H1186.58L1176.95 871.59Z" fill="#4b49df00" opacity="0" stroke-width="4" stroke="#ffffff00"></path><path d="M850.23 871.59H895.11L897.31 900.96H859.87L850.23 871.59Z" fill="#4b49df00" opacity="0" stroke-width="4" stroke="#ffffff00"></path><path d="M1316.35 871.59L1324.33 900.96H1286.98L1271.47 871.59H1316.35Z" fill="#4b49df00" opacity="0" stroke-width="4" stroke="#ffffff00"></path><path d="M989.64 871.59L997.62 900.96H960.27L944.76 871.59H989.64Z" fill="#4b49df00" opacity="0" stroke-width="4" stroke="#ffffff00"></path><path d="M1233.75 814.69H838.21C817.47 814.69 800.58 831.58 800.58 852.32 800.58 873.06 817.47 889.94 838.21 889.94H1233.75C1254.49 889.94 1271.38 873.06 1271.38 852.32 1271.38 831.58 1254.49 814.69 1233.75 814.69Z" fill="#4b49df" opacity="1" stroke-width="4" stroke="#000000"></path><path d="M1331.95 814.69H1164.92C1144.18 814.69 1127.3 831.58 1127.3 852.32 1127.3 873.06 1144.18 889.94 1164.92 889.94H1331.95C1352.69 889.94 1369.58 873.06 1369.58 852.32 1369.58 831.58 1352.69 814.69 1331.95 814.69Z" fill="#2d2d45" opacity="1" stroke-width="4" stroke="#000000"></path><path d="M954.49 889.94H994.59" stroke="#000000" stroke-width="4" stroke-linecap="round" stroke-linejoin="round" opacity="1" fill="none"></path><path d="M856.29 889.94H896.49" stroke="#000000" stroke-width="4" stroke-linecap="round" stroke-linejoin="round" opacity="1" fill="none"></path><path d="M1327.18 814.69H878.41" stroke="#000000" stroke-width="4" stroke-linecap="round" stroke-linejoin="round" opacity="1" fill="none"></path><path d="M1310.93 852.32H1196.13" stroke="#000000" stroke-width="4" stroke-linecap="round" stroke-linejoin="round" opacity="1" fill="none"></path><path d="M1321.31 889.94H1281.2" stroke="#000000" stroke-width="4" stroke-linecap="round" stroke-linejoin="round" opacity="1" fill="none"></path><path d="M1223.2 889.94H1183" stroke="#000000" stroke-width="4" stroke-linecap="round" stroke-linejoin="round" opacity="1" fill="none"></path></g><g><path d="M831.69 420.95L831.6 415.84C829.1 416.56 826.95 416.65 824.44 416.65 816.12 416.65 809.14 413.07 805.2 406.81 800.19 398.75 802.34 389.62 804.48 380.76 804.66 379.96 804.84 379.15 805.02 378.35 805.74 374.41 806.27 370.47 806.54 366.53 807.44 356.6 808.6 344.25 813.79 337.18 821.94 326.26 832.23 333.69 849.5 333.69 850.84 333.69 856.48 332.61 857.82 332.7 877.69 333.78 888.25 338.79 887.63 357.85 887.27 369.31 891.3 385.42 889.51 413.61L888.79 422.29 865.34 430.43 831.69 420.95Z" fill="#f4f1f0" opacity="1" stroke-width="4" stroke="#000000"></path><path d="M865.07 399.65L864.89 399.47 865.07 399.38C865.25 399.29 884.23 387.92 880.74 377.45 879.3 373.07 875.63 370.92 869.91 370.92 865.88 371.1 862.3 371.54 858.09 373.24L857.91 373.33 857.82 372.8C856.57 366.62 857.56 362.42 859.35 357.76 859.61 357.13 859.08 356.42 858.36 356.51 857.02 356.6 855.68 356.69 854.33 356.78 846.1 356.78 842.88 353.73 841.63 351.23 840.28 348.63 840.55 345.32 842.16 342.1 842.52 341.38 841.8 340.49 841 340.76 833.93 342.9 827.75 344.07 822.65 344.07 814.33 344.07 811.55 341.2 811.55 341.2 812.09 339.95 813.08 338.34 813.88 337.27 822.03 326.35 836.08 320.35 853.35 320.35 854.69 320.35 856.03 320.35 857.38 320.44 877.24 321.52 893 337.8 892.37 356.87 892.19 367.34 891.03 386.58 889.42 413.52 889.42 413.43 875.01 410.3 865.07 399.65Z" fill="#231f20" opacity="1" stroke-width="4" stroke="#000000"></path><path d="M831.6 415.84C835.81 414.32 841.27 411.91 845.12 409.58" stroke="#000000" stroke-width="4" stroke-linecap="round" stroke-linejoin="round" opacity="1" fill="none"></path><path d="M860.15 386.76L867.22 383.89" stroke="#000000" stroke-width="4" stroke-linecap="round" stroke-linejoin="round" opacity="1" fill="none"></path><path d="M823.37 375.39L822.83 377.36C822.47 378.52 822.83 379.69 823.73 380.49L823.91 380.67" stroke="#000000" stroke-width="4" stroke-linecap="round" stroke-linejoin="round" opacity="1" fill="none"></path><path d="M821.4 389.53C822.65 390.43 826.86 390.61 829.36 387.56" stroke="#000000" stroke-width="4" stroke-linecap="round" stroke-linejoin="round" opacity="1" fill="none"></path><path d="M835.54 373.87C836.83 373.87 837.87 372.83 837.87 371.54 837.87 370.26 836.83 369.22 835.54 369.22 834.25 369.22 833.21 370.26 833.21 371.54 833.21 372.83 834.25 373.87 835.54 373.87Z" fill="#231f20" opacity="1" stroke-width="4" stroke="#000000"></path><path d="M815.58 370.92C816.87 370.92 817.91 369.88 817.91 368.59 817.91 367.31 816.87 366.26 815.58 366.26 814.29 366.26 813.26 367.31 813.26 368.59 813.26 369.88 814.29 370.92 815.58 370.92Z" fill="#231f20" opacity="1" stroke-width="4" stroke="#000000"></path><path d="M690.73 473.12C689.3 469.18 688.41 467.13 687.24 464.17 685.37 459.7 682.86 453.61 676.42 436.43 673.46 430.52 670.69 425.42 668.18 420.95 663.08 411.73 660.04 406.18 661.74 404.39 662.19 403.94 662.72 403.67 663.44 403.67 665.94 403.67 667.29 405.1 673.46 411.55 674.36 412.53 676.95 415.22 678.56 416.83 678.74 417.01 679.01 416.83 678.92 416.56 677.94 414.41 676.15 410.65 675.34 408.95 671.85 401.61 668.63 394.99 670.96 390.16 671.58 388.91 672.75 388.01 674.09 387.74 674.18 383.72 676.06 381.3 679.19 381.3 680.62 381.39 681.96 381.75 683.22 382.37 684.29 381.66 685.54 381.3 686.8 381.3 694.23 381.3 701.92 393.83 708.72 404.84 711.95 410.03 714.9 414.95 717.4 417.46 717.67 404.93 720.09 397.5 723.85 397.5 724.3 397.5 724.65 397.59 725.01 397.77 727.88 398.84 729.4 406.45 731.1 415.31 731.46 417.19 731.9 419.16 732.26 421.12 732.98 424.61 733.6 427.66 734.14 430.34 735.93 438.49 737.09 443.95 736.2 451.28 739.06 458.53 741.84 466.05 744.34 472.58L744.79 473.84 690.73 473.12Z" fill="#f4f1f0" opacity="1" stroke-width="4" stroke="#000000"></path><path d="M717.4 417.46V426.05C717.4 426.05 708.19 435.44 709.8 448.69" stroke="#000000" stroke-width="4" stroke-linecap="round" stroke-linejoin="round" opacity="1" fill="none"></path><path d="M683.84 382.55C693.51 395.53 701.47 411.73 701.47 411.73" stroke="#000000" stroke-width="4" stroke-linecap="round" stroke-linejoin="round" opacity="1" fill="none"></path><path d="M674.18 387.74C678.47 393.11 691.81 416.92 691.81 416.92" stroke="#000000" stroke-width="4" stroke-linecap="round" stroke-linejoin="round" opacity="1" fill="none"></path><path d="M678.83 416.83L682.68 422.91" stroke="#000000" stroke-width="4" stroke-linecap="round" stroke-linejoin="round" opacity="1" fill="none"></path><path d="M832.05 422.11V415.67L833.75 415.22C838.31 413.88 841.36 412.53 845.74 410.56L846.01 411.1 840.46 425.96 832.05 422.11Z" fill="#f4f1f000" opacity="0" stroke-width="4" stroke="#ffffff00"></path><path d="M921.72 577.65C909.55 577.65 895.59 576.04 879.84 572.46L879.3 571.66 880.56 554.29H819.07L808.78 516.35C806.9 519.21 792.58 539.44 768.6 548.3 762.33 550.8 755.62 552.06 748.91 552.24 715.88 552.24 700.94 512.41 689.66 470.35L738.17 456.65 751.5 488.69C752.67 487.08 759.65 477.6 771.91 462.2 795 431.33 828.92 428.28 831.69 428.11V420.95H888.97L888.61 426.4C907.85 429.27 925.04 439.83 936.4 455.58 936.85 456.21 984.46 519.93 967.1 558.5 961.82 570.67 945.17 577.65 921.72 577.65Z" fill="#ffffff" opacity="1" stroke-width="4" stroke="#000000"></path><path d="M808.78 516.35L805.38 501.67" stroke="#000000" stroke-width="4" stroke-linecap="round" stroke-linejoin="round" opacity="1" fill="none"></path><path d="M798.31 528.43C798.31 528.34 800.73 521.18 800.73 507.04 800.73 498.81 800.73 493.44 803.59 493.44H803.77L809.23 515.99V516.08C806.18 520.55 802.61 524.76 798.76 528.61L798.31 528.43Z" fill="#ffffff00" opacity="0" stroke-width="4" stroke="#ffffff00"></path><path d="M901.68 507.67L910 528.43" stroke="#000000" stroke-width="4" stroke-linecap="round" stroke-linejoin="round" opacity="1" fill="none"></path><path d="M810.93 597.88C810.84 597.88 810.84 597.88 810.75 597.88 809.94 597.79 809.14 597.25 808.87 596.45 807.71 593.58 810.39 586.87 815.76 579.17 814.78 579.8 813.79 580.52 812.81 581.23 806.72 585.53 799.11 590.9 793.21 590.9 790.79 590.99 788.55 589.82 787.12 587.95 784.97 587.95 783.36 587.23 782.38 585.98 781.3 584.54 781.22 582.4 782.02 579.98 780.95 578.1 780.95 575.68 781.93 572.82 783.9 567.09 790.17 559.31 799.03 551.52 807.17 544.45 815.94 538.54 822.12 536.22 838.22 530.13 863.82 528.52 882.44 528.34H882.61L879.84 572.46C879.84 572.46 868.74 569.87 862.12 568.08 861.22 568.52 850.57 573.89 833.66 576.58 824.08 589.56 813.79 597.88 810.93 597.88Z" fill="#f4f1f0" opacity="1" stroke-width="4" stroke="#000000"></path><path d="M895.5 528.7L895.59 528.43C898.54 521.63 894.16 517.33 894.25 510.8 894.34 503.46 895.41 501.67 899.35 501.04L910 528.43 895.5 528.7Z" fill="#ffffff00" opacity="0" stroke-width="4" stroke="#ffffff00"></path><path d="M782.2 579.17C787.93 572.73 800.73 561.36 810.03 554.92" stroke="#000000" stroke-width="4" stroke-linecap="round" stroke-linejoin="round" opacity="1" fill="none"></path><path d="M787.21 587.68C791.51 583.38 805.74 571.3 817.19 563.42" stroke="#000000" stroke-width="4" stroke-linecap="round" stroke-linejoin="round" opacity="1" fill="none"></path><path d="M816.12 578.64L824.35 572.01" stroke="#000000" stroke-width="4" stroke-linecap="round" stroke-linejoin="round" opacity="1" fill="none"></path><path d="M751.68 489.14L750.79 499.88" stroke="#000000" stroke-width="4" stroke-linecap="round" stroke-linejoin="round" opacity="1" fill="none"></path><path d="M882.26 528.34C891.56 528.34 907.85 528.43 919.31 529.15" stroke="#000000" stroke-width="4" stroke-linecap="round" stroke-linejoin="round" opacity="1" fill="none"></path></g><g><path d="M929.51 619.17H365.51V647.17H929.51V619.17Z" fill="#0a0a0a" opacity="1" stroke-width="4" stroke="#000000"></path></g><g><path d="M633.11 627.17H375.51V639.17H633.11V627.17Z" fill="#ffffff" opacity="1" stroke-width="4" stroke="#000000"></path></g><g><path d="M570.74 454.02L570.31 448.17C588.8 429.09 601.35 417.55 607.62 413.82 626.03 402.88 650.7 394.74 660.54 394.74 663.42 394.74 665.03 395.42 665.2 396.86 665.96 402.88 646.21 412.13 643.32 413.4 649.09 416.45 647.73 423.57 647.48 424.59 653.84 430.27 650.28 435.96 649.68 436.8 650.45 437.65 655.28 443.67 648.67 450.29 644.6 454.36 640.69 455.2 638.24 455.2 636.71 455.2 635.69 454.86 635.35 454.78 628.91 465.63 616.87 469.03 615.77 469.28 615.51 469.87 613.73 473.94 610.85 479.79L605 481.15 570.74 454.02Z" fill="#fbf7f3" opacity="1" stroke-width="4" stroke="#000000"></path><path d="M405.13 419.08V418.91C402.59 407.8 398.77 390.42 395.04 370.92 391.9 354.21 394.02 340.48 401.32 331.15 407.85 322.75 418.19 318.09 432.01 317.16 433.37 317.07 434.64 317.07 435.91 317.07 462.79 317.07 472.46 335.3 477.97 351.24 478.82 353.79 479.75 356.33 480.52 358.88 481.53 358.96 488.15 359.64 489 362.95 489.84 366.17 485.43 370.83 484.76 371.51 487.89 381.94 488.83 388.05 489.08 391.44 489.25 393.98 489.17 400.34 484.5 405.43 480.35 409.92 473.73 412.13 464.83 412.13 462.37 412.13 459.74 411.96 457.03 411.62L458.38 419.5 405.13 419.08Z" fill="#fbf7f3" opacity="1" stroke-width="4" stroke="#000000"></path><path d="M445.33 408.48C445.33 408.48 451.94 410.77 455.67 411.36L457.03 411.62 458.3 419.17 454.14 424.25 445.33 408.48Z" fill="#fbf7f300" opacity="0" stroke-width="4" stroke="#ffffff00"></path><path d="M336.36 554.75C333.48 537.71 343.74 489.88 363.33 461.14 382.07 433.67 405.05 428.49 407.34 428.07 407.17 427.31 406.32 424 405.13 418.91L405.05 418.74 458.21 418.57 459.49 425.61C471.1 426.2 482.38 428.66 493.24 432.9 509.94 439.52 539.19 476.15 541.4 478.86 542.84 477.25 555.9 462.92 570.31 448.08L570.4 448 610.93 479.62 610.85 479.79C600.76 500.23 574.47 547.72 548.95 548.65 548.35 548.65 547.67 548.65 547.08 548.65 530.46 548.65 515.37 540.34 505.62 533.39 496.12 526.6 489.76 519.73 488.49 518.38L475.77 570.7 390.63 571.2C390.63 571.2 383.68 584.26 369.18 584.26 349.93 584.26 339.5 573.49 336.36 554.75Z" fill="#ffffff" opacity="1" stroke-width="4" stroke="#000000"></path><path d="M354.68 581.63C358.83 583.33 363.58 584.26 369.18 584.26 383.68 584.26 390.63 571.2 390.63 571.2L381.39 527.87 381.22 528.04C376.22 531.27 374.95 538.13 373.42 546.19 371.21 557.55 368.5 571.54 354.68 581.63Z" fill="#ffffff00" opacity="0" stroke-width="4" stroke="#ffffff00"></path><path d="M478.65 507.61L488.49 518.38 475.77 570.7 453.13 570.86 478.65 507.61Z" fill="#ffffff00" opacity="0" stroke-width="4" stroke="#ffffff00"></path><path d="M329.33 453V452.83C326.95 420.95 343.91 409.41 360.28 398.14 372.91 389.49 384.87 381.35 387.83 364.56 393.94 330.47 404.29 319.19 432.1 316.05 433.96 315.88 435.83 315.71 437.69 315.71 459.06 315.71 468.9 329.96 472.8 338.61 472.8 338.61 471.27 348.79 456.18 348.79 455.08 348.79 453.89 348.7 452.7 348.62 455.08 356.08 453.81 364.22 449.23 370.58L449.14 370.66 449.06 370.58C448.97 370.58 439.98 367.27 431.93 367.27 425.23 367.27 421.07 369.48 419.55 373.88 415.14 387.03 435.4 400.68 435.57 400.85H435.66V400.93C435.74 401.19 442.36 429.26 432.27 452.74L432.18 452.83H329.33V453Z" fill="#0f0f0f" opacity="1" stroke-width="4" stroke="#000000"></path><path d="M379.1 337.68C398.63 337.68 414.46 321.85 414.46 302.32 414.46 282.79 398.63 266.96 379.1 266.96 359.57 266.96 343.74 282.79 343.74 302.32 343.74 321.85 359.57 337.68 379.1 337.68Z" fill="#0f0f0f" opacity="1" stroke-width="4" stroke="#000000"></path><path d="M433.79 409.75C439.04 409.75 443.29 405.5 443.29 400.26 443.29 395.01 439.04 390.76 433.79 390.76 428.55 390.76 424.3 395.01 424.3 400.26 424.3 405.5 428.55 409.75 433.79 409.75Z" fill="#ffffff" opacity="1" stroke-width="4" stroke="#000000"></path><path d="M479.75 380.84C478.4 381.77 474.16 381.94 471.53 378.97" stroke="#000000" stroke-width="4" stroke-linecap="round" stroke-linejoin="round" opacity="1" fill="none"></path><path d="M471.53 367.1C470.09 367.1 468.98 365.91 468.98 364.56 468.98 363.2 470.17 362.01 471.53 362.01 472.97 362.01 474.07 363.2 474.07 364.56 474.07 365.91 472.88 367.1 471.53 367.1Z" fill="#231f20" opacity="1" stroke-width="4" stroke="#000000"></path><path d="M457.45 411.79C451.77 411.03 447.28 409.75 447.28 409.75" stroke="#000000" stroke-width="4" stroke-linecap="round" stroke-linejoin="round" opacity="1" fill="none"></path><path d="M443.97 386.69L436.34 383.3" stroke="#000000" stroke-width="4" stroke-linecap="round" stroke-linejoin="round" opacity="1" fill="none"></path><path d="M371.89 549.5L384.78 545.26" stroke="#000000" stroke-width="4" stroke-linecap="round" stroke-linejoin="round" opacity="1" fill="none"></path><path d="M488.4 518.21C482.13 512.19 476.19 505.4 476.19 505.4" stroke="#000000" stroke-width="4" stroke-linecap="round" stroke-linejoin="round" opacity="1" fill="none"></path><path d="M541.4 479.2V493.96" stroke="#000000" stroke-width="4" stroke-linecap="round" stroke-linejoin="round" opacity="1" fill="none"></path><path d="M570.4 448.25L610.59 479.71" stroke="#000000" stroke-width="4" stroke-linecap="round" stroke-linejoin="round" opacity="1" fill="none"></path><path d="M642.81 413.4C637.47 413.15 632.22 413.82 627.13 415.52" stroke="#000000" stroke-width="4" stroke-linecap="round" stroke-linejoin="round" opacity="1" fill="none"></path><path d="M647.22 424.59C640.69 423.15 631.37 426.54 631.37 426.54" stroke="#000000" stroke-width="4" stroke-linecap="round" stroke-linejoin="round" opacity="1" fill="none"></path><path d="M649.43 436.8C642.39 435.87 634.76 438.41 634.76 438.41" stroke="#000000" stroke-width="4" stroke-linecap="round" stroke-linejoin="round" opacity="1" fill="none"></path><path d="M379.1 519.82L390.55 570.7" stroke="#000000" stroke-width="4" stroke-linecap="round" stroke-linejoin="round" opacity="1" fill="none"></path></g><g><path d="M1061.1 616L1052.15 626.85C1052.15 626.85 1033.23 599.99 1015.76 578.02 1005.43 564.92 991.53 546 985.71 545.56 983.16 545.42 978.36 547.24 981.93 560.12 981.93 560.12 967.01 557.13 955.58 561.94L952.09 565.72C952.09 565.72 971.81 604.07 971.67 604.14L982.8 612.87C984.11 616.44 1007.18 690.45 1043.63 699.25 1066.99 704.93 1085.33 689.5 1094.06 680.62L1061.1 616Z" fill="#fbf9f9" opacity="1" stroke-width="4" stroke="#000000"></path><path d="M1030.03 911.3V918.87C1027.55 927.75 1024.64 937.35 1021.29 946.45L1013.73 949.43H956.38L951.94 902.21C952.96 899.73 954.56 891.87 956.38 882.49L958.57 874.34 1030.03 911.3Z" fill="#fbf9f9" opacity="1" stroke-width="4" stroke="#000000"></path><path d="M1081.47 972.14L1060.44 931.39C1059.93 926.51 1058.41 919.82 1056.37 912.83L1054.4 902.13 1133.87 900.82 1137.73 912.03C1139.4 920.62 1140.93 930.3 1141.95 939.54L1139.76 944.41 1081.47 972.14Z" fill="#fbf9f9" opacity="1" stroke-width="4" stroke="#000000"></path><path d="M1133.14 815.54L1043.78 815.25C1043.93 846.46 1042.76 870.55 1029.88 918.87L956.17 882.85C958.13 873.17 960.31 861.24 962.5 849.45 970.86 805.2 973.41 774.35 995.17 751.94 1022.82 723.63 1096.25 717.74 1096.25 717.74L1101.78 714.9 1192.67 710.02 1198.2 735.35C1207.08 776.68 1175.49 815.76 1133.14 815.54Z" fill="#ffffff" opacity="1" stroke-width="4" stroke="#000000"></path><path d="M1034.97 898.35C1007.98 839.7 1002.96 796.33 1028.21 776.1L1043.93 815.32C1043.93 841.73 1043.12 862.98 1034.97 898.35Z" fill="#ffffff00" opacity="0" stroke-width="4" stroke="#ffffff00"></path><path d="M1171.85 815.9H1105.27C1119.31 843.7 1130.96 875.94 1138.09 912.76H1056.44C1043.49 870.33 1006.67 794.58 1032.94 763.43 1065.1 725.23 1169.89 713.51 1169.89 713.51L1220.46 710.31C1220.46 710.31 1229.49 725.74 1235.09 750.19 1242.73 783.88 1222.79 815.9 1171.85 815.9Z" fill="#ffffff" opacity="1" stroke-width="4" stroke="#000000"></path><path d="M1158.1 815.9C1180.08 815.9 1104.98 815.9 1104.98 815.9L1091.59 790.8C1102 787.74 1129.28 815.9 1158.1 815.9Z" fill="#ffffff00" opacity="0" stroke-width="4" stroke="#ffffff00"></path><path d="M1040.65 868.08C1027.04 829.15 1014.31 785.27 1032.65 763.36 1042.18 752.16 1057.61 743.28 1074.93 736.36" stroke="#000000" stroke-width="4" stroke-linecap="round" stroke-linejoin="round" opacity="1" fill="none"></path><path d="M1137.94 912.83H1056.37" stroke="#000000" stroke-width="4" stroke-linecap="round" stroke-linejoin="round" opacity="1" fill="none"></path><path d="M1030.03 919.02L956.31 883" stroke="#000000" stroke-width="4" stroke-linecap="round" stroke-linejoin="round" opacity="1" fill="none"></path><path d="M1106.51 545.85C1115.02 553.86 1131.1 549.42 1131.1 549.42V595.99L1183.93 587.77 1185.75 562.3V507.5C1185.75 490.11 1185.39 466.32 1166.62 458.24 1145.66 449.14 1117.5 456.42 1109.27 467.33 1101.05 478.1 1102.87 496.37 1101.92 507.36 1100.9 518.27 1095.45 535.67 1106.51 545.85Z" fill="#fbf9f9" opacity="1" stroke-width="4" stroke="#000000"></path><path d="M1131.1 549.42V556.19L1146.89 542.58C1138.67 547.38 1131.1 549.42 1131.1 549.42Z" fill="#fbf9f900" opacity="0" stroke-width="4" stroke="#ffffff00"></path><path d="M1102.51 490.04C1102.51 490.04 1112.4 495.13 1122.15 484.58 1120.77 492.95 1128.05 505.03 1144.13 496.52 1140.93 508.38 1149.3 512.89 1149.3 512.89 1149.3 512.89 1163.27 498.12 1173.89 508.01 1183.93 519.36 1165.6 535.67 1165.6 535.67 1169.82 541.2 1178.69 544.76 1185.83 544.32L1185.9 507.36C1185.9 489.97 1185.46 466.24 1166.69 458.17 1145.73 449.07 1117.57 456.35 1109.35 467.26 1104.62 473.3 1102.94 481.16 1102.51 490.04Z" fill="#231f20" opacity="1" stroke-width="4" stroke="#000000"></path><path d="M1157.96 523.08L1164.36 516.82" stroke="#000000" stroke-width="4" stroke-linecap="round" stroke-linejoin="round" opacity="1" fill="none"></path><path d="M1142.82 545.56C1142.82 545.56 1138.67 548.91 1130.96 550.8" stroke="#000000" stroke-width="4" stroke-linecap="round" stroke-linejoin="round" opacity="1" fill="none"></path><path d="M1116.04 529.26C1118.51 528.97 1120.7 527.88 1122.08 525.77" stroke="#000000" stroke-width="4" stroke-linecap="round" stroke-linejoin="round" opacity="1" fill="none"></path><path d="M1265.58 631.87C1250.37 600.94 1232.69 582.97 1221.7 574.67 1212.17 567.39 1198.92 561.06 1185.75 558.73 1185.75 558.73 1173.82 580.27 1153.08 580.27 1131.47 580.27 1131.1 558.81 1131.1 558.81 1128.05 559.17 1109.27 564.77 1092.68 581.36 1081.47 592.72 1068.16 606.54 1060.08 617.17L1093.92 680.84C1096.61 677.86 1099.3 674.95 1101.49 671.74L1099.96 718.32H1224.54L1219.23 677.86 1210.57 661.19 1265.58 631.87Z" fill="#ffffff" opacity="1" stroke-width="4" stroke="#000000"></path><path d="M1085.62 688.19C1088.97 685.57 1091.74 683.02 1093.92 680.84 1096.61 677.86 1099.3 674.95 1101.49 671.74L1102.94 640.31C1100.98 641.18 1099.45 642.93 1098.79 644.97L1085.62 688.19Z" fill="#ffffff00" opacity="0" stroke-width="4" stroke="#ffffff00"></path><path d="M1201.54 645.69L1183.13 718.17H1224.47V688.7L1201.54 645.69Z" fill="#ffffff00" opacity="0" stroke-width="4" stroke="#ffffff00"></path><path d="M1115.24 521.11C1114.44 520.82 1113.93 520.31 1113.57 519.58 1113.2 518.42 1113.93 516.38 1114.44 515.07" stroke="#000000" stroke-width="4" stroke-linecap="round" stroke-linejoin="round" opacity="1" fill="none"></path><path d="M1125.72 512.89C1126.96 512.89 1127.97 511.88 1127.97 510.63 1127.97 509.39 1126.96 508.38 1125.72 508.38 1124.47 508.38 1123.46 509.39 1123.46 510.63 1123.46 511.88 1124.47 512.89 1125.72 512.89Z" fill="#231f20" opacity="1" stroke-width="4" stroke="#000000"></path><path d="M1107.89 511.14C1109.13 511.14 1110.15 510.13 1110.15 508.89 1110.15 507.64 1109.13 506.63 1107.89 506.63 1106.64 506.63 1105.63 507.64 1105.63 508.89 1105.63 510.13 1106.64 511.14 1107.89 511.14Z" fill="#231f20" opacity="1" stroke-width="4" stroke="#000000"></path><path d="M1032.72 984.29L1144.49 984.36V984.15C1144.49 977.96 1144.2 971.7 1143.98 965.73 1143.84 963.41 1143.69 960.86 1143.62 958.53 1143.26 952.13 1142.82 945.65 1142.09 939.46 1107.74 940.99 1086.93 961.73 1086.93 961.73L1089.92 943.25C1091.08 936.55 1085.91 930.66 1079.22 930.66H1060.3C1060.44 931.46 1060.44 932.04 1060.59 932.84 1060.74 934.52 1060.74 936.34 1060.74 937.86 1060.59 966.39 1041.31 969.88 1032.86 984L1032.72 984.29Z" fill="#ffffff" opacity="1" stroke-width="4" stroke="#000000"></path><path d="M1030.83 988.37C1029.81 991.42 1029.15 995.06 1029.15 999.43H1144.35C1144.49 994.04 1144.64 988.66 1144.49 983.49H1033.16C1032.28 984.95 1031.48 986.62 1030.83 988.37Z" fill="#4f4f4f" opacity="1" stroke-width="4" stroke="#000000"></path><path d="M1070.92 958.38L1058.19 953" stroke="#000000" stroke-width="4" stroke-linecap="round" stroke-linejoin="round" opacity="1" fill="none"></path><path d="M1063.06 970.97L1052.29 962.75" stroke="#000000" stroke-width="4" stroke-linecap="round" stroke-linejoin="round" opacity="1" fill="none"></path><path d="M1082.35 984.22L1087.01 961.59" stroke="#000000" stroke-width="4" stroke-linecap="round" stroke-linejoin="round" opacity="1" fill="none"></path><path d="M903.84 936.55L1004.19 986.76C1004.34 986.62 1004.34 986.62 1004.48 986.47 1007.18 980.94 1010.01 974.9 1012.27 969.37 1013.14 967.04 1014.24 964.72 1015.11 962.53 1017.44 956.86 1019.62 951.33 1021.66 945.8 989.35 931.02 960.68 940.77 960.68 940.77L970.36 926.88C974.72 920.54 972.39 911.81 965.48 908.46L952.02 901.99C952.02 901.99 952.02 902.06 951.94 902.13 951.14 903.81 950.56 905.34 949.76 906.79 936.81 932.26 918.4 927.09 904.5 935.97 904.21 936.19 903.84 936.55 903.84 936.55Z" fill="#ffffff" opacity="1" stroke-width="4" stroke="#000000"></path><path d="M893.58 948.63L996.99 1000.23C999.32 996.73 1002.08 991.49 1004.63 986.33L903.99 936.41C902.82 937.21 901.73 938.08 900.57 939.1 897.95 941.43 895.62 944.34 893.58 948.63Z" fill="#4f4f4f" opacity="1" stroke-width="4" stroke="#000000"></path><path d="M948.09 930.59L939.21 919.96" stroke="#000000" stroke-width="4" stroke-linecap="round" stroke-linejoin="round" opacity="1" fill="none"></path><path d="M934.84 937.43L929.02 925.2" stroke="#000000" stroke-width="4" stroke-linecap="round" stroke-linejoin="round" opacity="1" fill="none"></path><path d="M946.2 958.38L960.46 940.77" stroke="#000000" stroke-width="4" stroke-linecap="round" stroke-linejoin="round" opacity="1" fill="none"></path><path d="M1232.47 784.54C1223.38 784.54 1215.59 777.99 1214.06 769.11L1210.2 746.7H1234.22" stroke="#000000" stroke-width="4" stroke-linecap="round" stroke-linejoin="round" opacity="1" fill="none"></path><path d="M1094.94 796.84C1098.14 802.88 1105.12 815.9 1105.12 815.9" stroke="#000000" stroke-width="4" stroke-linecap="round" stroke-linejoin="round" opacity="1" fill="none"></path><path d="M942.78 548.55L959 533.05 976.32 551.24 1010.96 587.62 994.73 603.12 942.78 548.55Z" fill="#0a0a0a" opacity="1" stroke-width="4" stroke="#000000"></path><path d="M968.17 613.97C958.86 611.64 961.4 604.36 961.4 604.36 956.89 603.49 955.29 600.72 954.64 598.54 953.98 596.14 954.42 593.95 954.42 593.95 951.87 592.21 950.49 590.17 950.2 587.91 949.76 584.06 952.89 580.78 952.89 580.78 952.82 580.78 946.63 579.04 947.36 571.98 948.09 566.3 952.96 563.32 955.51 562.15L960.24 567.03C964.68 565.5 974.28 563.68 978.58 568.85 981.27 573.14 977.27 575.47 977.27 575.54 977.34 575.54 984.69 575.62 985.64 580.13 986.66 584.64 982.51 587.48 982.43 587.48 982.51 587.48 988.55 588.79 988.91 594.24 989.06 599.7 982.07 601.59 982.07 601.59 985.35 602.69 988.4 605.6 987.82 609.67 987.31 612.36 985.2 617.24 968.17 613.97Z" fill="#fbf9f9" opacity="1" stroke-width="4" stroke="#000000"></path><path d="M961.33 566.67C965.77 565.14 974.36 563.46 978.65 568.7 981.34 573 977.34 575.32 977.34 575.4 977.41 575.4 984.76 575.47 985.71 579.98 986.73 584.49 982.58 587.33 982.51 587.33 982.58 587.33 988.62 588.64 988.98 594.1 989.13 599.56 982.14 601.45 982.14 601.45 985.42 602.54 988.47 605.45 987.89 609.53 987.53 611.05 986.73 613.24 983.16 614.33" stroke="#000000" stroke-width="4" stroke-linecap="round" stroke-linejoin="round" opacity="1" fill="none"></path><path d="M1052.15 626.85V646.06" stroke="#000000" stroke-width="4" stroke-linecap="round" stroke-linejoin="round" opacity="1" fill="none"></path><path d="M952.96 580.71C967.15 579.84 977.27 575.47 977.27 575.47" stroke="#000000" stroke-width="4" stroke-linecap="round" stroke-linejoin="round" opacity="1" fill="none"></path><path d="M954.49 593.88C970.5 593.01 982.51 587.33 982.51 587.33" stroke="#000000" stroke-width="4" stroke-linecap="round" stroke-linejoin="round" opacity="1" fill="none"></path><path d="M961.4 604.29C974.87 603.56 982.14 601.45 982.14 601.45" stroke="#000000" stroke-width="4" stroke-linecap="round" stroke-linejoin="round" opacity="1" fill="none"></path><path d="M1107.82 716.13C1101.56 722.76 1108.18 728.36 1114.22 726.76 1110.36 737.02 1125.57 734.62 1125.57 734.62 1125.57 734.62 1125.28 739.64 1136.49 739.64 1147.7 739.64 1184.95 727.63 1184.95 727.63 1184.95 727.63 1220.39 731.12 1237.64 730.18 1255.03 729.31 1297.67 728.87 1284.72 680.62 1280.35 664.83 1275.55 650.57 1265.44 631.65L1208.68 659.08C1215.08 671.02 1217.55 676.84 1217.55 676.84 1217.55 676.84 1169.02 685.57 1145.58 691.61 1122.37 698.01 1109.05 703.69 1105.49 709 1102.51 713.73 1107.82 716.13 1107.82 716.13Z" fill="#fbf9f9" opacity="1" stroke-width="4" stroke="#000000"></path><path d="M1237.57 680.7L1217.63 676.91" stroke="#000000" stroke-width="4" stroke-linecap="round" stroke-linejoin="round" opacity="1" fill="none"></path><path d="M1199.87 643.87L1208.75 659.16" stroke="#000000" stroke-width="4" stroke-linecap="round" stroke-linejoin="round" opacity="1" fill="none"></path><path d="M1152.93 724.36L1125.57 734.62" stroke="#000000" stroke-width="4" stroke-linecap="round" stroke-linejoin="round" opacity="1" fill="none"></path><path d="M1148.93 713.37L1114.22 726.76" stroke="#000000" stroke-width="4" stroke-linecap="round" stroke-linejoin="round" opacity="1" fill="none"></path><path d="M1143.55 702.53C1116.62 710.75 1107.82 716.21 1107.82 716.21" stroke="#000000" stroke-width="4" stroke-linecap="round" stroke-linejoin="round" opacity="1" fill="none"></path><path d="M1101.27 671.74L1103.01 631.72" stroke="#000000" stroke-width="4" stroke-linecap="round" stroke-linejoin="round" opacity="1" fill="none"></path></g></svg>