<svg width="327" height="319" viewBox="0 0 327 319" fill="none" xmlns="http://www.w3.org/2000/svg">
<g clip-path="url(#clip0)">
<path d="M261.795 318.035C257.114 318.207 250.654 318.199 244.257 318.058C232.659 317.807 221.281 317.14 221.124 316.378C219.542 316.104 220.14 261.404 221.391 257.927C222.76 254.136 236.75 256.082 240.826 256.082C245.807 256.082 253.195 255.831 258.199 256.216C262.236 256.522 265.887 257.401 266.131 261.914C266.862 275.352 266.201 296.858 266.178 312.132C266.178 315.97 266.343 317.862 261.795 318.035Z" fill="white"/>
<path d="M277.697 162.161C270.34 158.315 271.552 151.871 266.304 146.133L282.332 156.4C285.495 160.685 281.804 164.304 277.697 162.161Z" fill="white"/>
<path d="M290.247 161.462C290.247 161.329 290.216 161.078 290.16 160.756C292.151 166.949 296.699 166.439 299.099 163.558C301.121 161.133 300.161 154.791 300.082 154.437C300.743 158.346 308.1 158.637 308.651 152.711C308.895 150.05 313.821 151.737 313.994 147.13C314.104 144.304 313.569 141.494 312.507 138.763L327 136.33L325.883 131.173L309.879 133.716C303.143 123.449 288.965 115.129 273.275 112.885L274.251 108.521L217.63 98.0578C225.192 90.0204 227.285 83.388 230.243 75.8059C233.556 67.3289 230.707 59.0403 226.388 68.0275C227.088 65.8298 233.154 53.2792 227.269 52.1175L228.835 41.4585C229.692 36.3645 230.739 32.754 224.72 32.0554L206.843 29.6929C203.09 29.269 202.507 32.7304 202.051 34.0883L196.559 67.219C196.472 67.8234 196.37 68.4121 196.26 68.9851C184.827 72.6113 191.13 83.4901 186.023 88.6861C184.772 89.9576 183.71 90.8603 182.703 91.5981L167.682 88.8195C151.867 85.8997 144.077 87.0378 139.907 89.1884C140.702 83.1604 143.684 73.4041 144.085 70.1075C144.132 69.715 160.372 69.558 160.184 59.268C160.081 53.9856 159.538 49.0878 158.641 44.606C158.712 44.606 158.775 44.6138 158.846 44.6138C162.56 44.6138 165.565 41.5527 165.565 37.7773C165.565 34.002 162.552 30.9408 158.846 30.9408C157.367 30.9408 156.013 31.4275 154.904 32.2516C152.803 27.2832 150.206 23.2174 147.39 20.172C155.88 17.4876 160.16 6.81295 147.248 1.53841C139.726 -1.53841 119.268 6.13794 112.297 11.4596C107.096 15.4312 106.254 23.3744 108.064 29.5202C109.134 33.1386 113.265 51.6544 116.758 51.6544C118.159 51.6544 117.624 51.5367 118.946 51.3797C118.678 57.5019 118.261 63.844 117.718 68.2237C117.482 70.1389 117.317 72.1168 117.222 74.1183C106.781 70.6805 90.7534 77.8231 75.8901 107.021C64.7879 106.025 32.9211 106.252 22.6136 107.539C10.9685 108.999 0.424929 118.677 0.849819 129.658C1.16455 137.868 6.82975 174.233 11.834 198.494C17.0822 223.956 25.3282 243.398 55.401 243.398C60.0039 243.398 105.475 244.395 105.979 242.778C105.821 258.476 105.089 282.894 105.648 287.643H105.562C105.514 288.507 107.505 310.319 107.733 311.057C107.993 311.873 117.301 312.391 128.545 312.713C130.457 312.768 130.961 307.36 132.951 307.399C134.659 307.438 137.853 312.933 139.569 312.964C153.33 313.207 166.675 313.231 168.193 313.184C178.808 312.854 189.296 313.16 198.66 313.859C210.305 314.73 184.693 293.122 179.532 288.467C184.135 288.467 188.738 288.467 193.349 288.467C195.268 283.444 193.522 247.55 191.854 220.299L204.6 218.305L204.317 229.819H204.608C204.773 233.179 206.182 252.064 206.355 252.746C206.567 253.563 214.113 254.081 223.232 254.403C224.783 254.457 225.192 249.049 226.805 249.089C228.19 249.128 230.778 254.622 232.171 254.654C243.328 254.897 254.147 254.921 255.382 254.873C263.99 254.544 272.488 254.85 280.089 255.548C290.341 256.498 264.974 230.934 263.904 229.356L266.894 229.333C270.002 221.201 263.054 176.933 259.797 165.332C257.727 157.977 255.099 150.686 252.101 143.833L265.792 146.337L273.259 112.885L284.881 145.756L290.247 161.462ZM200.65 134.422C196.354 139.634 192.837 145.246 190.618 150.05C190.06 151.251 187.424 156.926 184.56 162.859C182.498 155.952 179.957 149.131 177.093 142.719L193.034 133.025L200.65 134.422ZM104.381 235.502L106.01 235.376C106.026 237.456 106.018 239.976 105.986 242.778L104.381 235.502Z" fill="white"/>
<path d="M142.535 46.6781C146.705 46.6781 150.104 43.2324 150.104 38.9939C150.104 34.7555 146.713 31.3098 142.535 31.3098C138.365 31.3098 134.966 34.7555 134.966 38.9939C134.966 43.2324 138.357 46.6781 142.535 46.6781ZM136.657 38.9939C136.657 35.6895 139.293 32.9973 142.535 32.9973C145.777 32.9973 148.413 35.6895 148.413 38.9939C148.413 42.2984 145.777 44.9906 142.535 44.9906C139.293 44.9906 136.657 42.3062 136.657 38.9939Z" fill="black"/>
<path d="M241.566 263.633C242.038 268.083 242.101 274.198 242.101 279.025V279.606C242.101 282.455 242.109 283.891 241.164 284.778C240.559 285.351 239.709 285.532 238.411 285.532C238.009 285.532 237.569 285.516 237.073 285.485C236.349 285.445 235.334 285.438 234.256 285.438C232.682 285.43 231.054 285.43 230.102 285.296C226.986 284.872 226.128 284.213 225.9 282.063C225.884 281.945 225.609 265.454 225.837 264.167C226.482 260.611 228.559 260.658 232.698 260.752C233.076 260.76 233.477 260.768 233.902 260.776C234.586 260.784 235.263 260.76 235.916 260.737C238.411 260.643 241.235 260.533 241.566 263.633Z" fill="black"/>
<path d="M230.22 289.268C230.873 289.268 231.604 289.26 232.407 289.213C237.23 288.923 239.968 289.37 241.29 290.657C242.219 291.568 242.282 292.721 242.25 293.506C242.117 296.779 242.203 303.043 242.25 307.187C242.274 309.291 242.297 310.821 242.282 311.308C242.282 311.755 242.109 312.163 241.786 312.477C240.81 313.443 238.647 313.443 235.641 313.435C234.878 313.435 234.091 313.427 233.312 313.451H233.257C232.793 313.459 232.313 313.474 231.825 313.474C228.74 313.474 225.522 313.066 225.231 309.573C224.908 305.657 224.964 297.258 225.145 293.208C225.326 289.291 227.599 289.284 230.22 289.268Z" fill="black"/>
<path d="M310.288 132.797C308.344 129.94 305.803 127.193 302.711 124.634C295.141 118.37 284.826 113.873 274.298 112.193L275.266 107.845L274.408 107.688L219.298 97.4999C225.451 90.6241 227.718 84.7217 230.228 78.207C230.495 77.5163 230.763 76.8099 231.038 76.1034C233.218 70.5306 232.997 64.4947 230.574 63.443C230.157 63.2624 229.637 63.1997 229.047 63.4273C230.298 59.8952 231.392 55.6018 230.047 53.1294C229.63 52.3602 229.016 51.8186 228.221 51.5046L229.685 41.5677C229.74 41.2538 229.795 40.932 229.85 40.618C230.361 37.6511 230.81 35.0923 229.464 33.3027C228.599 32.1489 227.088 31.4661 224.83 31.1992L206.969 28.8366C202.885 28.3735 201.846 31.8585 201.406 33.3498C201.359 33.5147 201.311 33.6638 201.264 33.7972L201.233 33.9228L195.741 67.0692C195.678 67.4931 195.607 67.9091 195.528 68.3172C188.525 70.7426 188.085 75.9151 187.699 80.6166C187.455 83.5129 187.227 86.2522 185.433 88.0732C184.347 89.1799 183.395 90.0041 182.498 90.6712L167.847 87.9633C153.519 85.3182 145.604 85.9932 140.993 87.7671C141.528 84.6275 142.48 80.8129 143.338 77.3828C144.014 74.6828 144.604 72.3045 144.864 70.7661C145.021 70.7426 145.21 70.719 145.383 70.6955C149.302 70.1774 161.23 68.5919 161.057 59.2202C160.971 54.4323 160.498 49.7857 159.672 45.3824C163.473 44.9742 166.439 41.709 166.439 37.7453C166.439 33.5068 163.048 30.0611 158.87 30.0611C157.579 30.0611 156.368 30.3907 155.297 30.9716C154.44 29.0486 153.503 27.2197 152.473 25.5243C151.34 23.6563 150.128 21.9766 148.861 20.4931C153.126 18.7035 156.116 14.9831 156.273 11.0821C156.375 8.5783 155.384 3.90813 147.586 0.72143C139.647 -2.48882 118.71 5.49364 111.793 10.7839C106.12 15.1244 105.467 23.6563 107.261 29.755C107.427 30.3201 107.678 31.2777 107.993 32.4864C111.195 44.8329 113.784 52.4857 116.766 52.4857C117.514 52.4857 117.797 52.4543 118.064 52.3915C117.797 58.0978 117.404 63.9846 116.892 68.1131C116.695 69.6673 116.554 71.3077 116.451 73.0031C110.558 71.4882 103.752 73.2621 97.1505 78.05C89.3923 83.6856 82.0826 93.1201 75.4102 106.126C63.4425 105.145 32.3311 105.475 22.5193 106.699C9.89852 108.277 -0.401126 118.802 0.0158954 129.681C0.330629 137.726 5.93288 173.981 11.0158 198.658C13.2976 209.725 16.5866 222.229 23.6602 231.012C26.422 234.442 29.6638 237.189 33.417 239.269L19.553 312.704C18.3176 313.67 16.3427 315.279 16.028 315.648C16.8856 315.514 23.975 315.923 23.8963 315.64C23.8097 315.318 22.2203 313.74 21.2683 312.759L27.7596 278.381H79.1713L84.2385 312.665C83.3022 313.631 81.6105 315.318 81.5161 315.648C81.4767 315.781 82.9796 315.766 84.687 315.718L84.6949 315.773L85.1198 315.711C86.1112 315.687 87.1341 315.656 87.9445 315.64C87.9445 315.64 87.9366 315.648 87.9366 315.656C87.858 315.938 94.9473 315.53 95.805 315.663C95.5374 315.357 94.129 314.196 92.9488 313.254L98.4251 276.473H104.641C104.594 282.203 104.641 285.311 104.775 287.022L104.743 287.611C104.736 287.752 106.592 310.193 106.954 311.323C107.222 312.163 107.474 312.963 128.553 313.568C130.056 313.615 130.795 312.006 131.504 310.46C131.881 309.635 132.511 308.254 132.959 308.254C132.959 308.254 132.959 308.254 132.967 308.254C133.471 308.285 134.887 309.887 135.65 310.742C137.106 312.383 138.357 313.795 139.592 313.811C153.354 314.054 166.714 314.078 168.257 314.031C178.171 313.725 188.675 313.96 198.636 314.706C198.872 314.722 199.108 314.729 199.321 314.729C200.934 314.729 201.957 314.243 202.366 313.27C203.853 309.769 195.339 301.276 182.113 289.605C182.003 289.511 181.892 289.416 181.79 289.314H193.962L194.167 288.773C196.158 283.553 194.435 248.028 192.782 221.012L203.766 219.293L203.483 230.674H203.869C204.191 235.572 205.324 252 205.568 252.958C205.789 253.821 206.001 254.637 223.233 255.25C224.617 255.281 225.215 253.664 225.806 252.086C226.049 251.419 226.498 250.21 226.821 249.959C227.269 250.203 228.237 251.545 228.827 252.361C229.574 253.405 230.188 254.221 230.755 254.763C225.538 254.692 221.486 255.257 220.62 257.651C219.826 259.849 219.472 277.415 219.377 287.446C219.306 295.641 219.259 314.902 220.313 316.715C220.345 316.77 220.384 316.825 220.424 316.872C220.817 317.532 222.823 318.152 236.593 318.685C242.25 318.905 248.215 319.015 253.416 319.015C256.594 319.015 259.482 318.976 261.843 318.889C267.043 318.701 267.043 316.111 267.043 312.532V312.139C267.051 307.54 267.114 302.438 267.185 297.03C267.342 284.377 267.508 271.293 266.996 261.874C266.744 257.298 263.227 256.034 260.403 255.603C266.918 255.532 273.621 255.799 280.034 256.388C280.247 256.403 280.443 256.419 280.632 256.419C281.891 256.419 282.733 255.995 283.15 255.163C284.771 251.898 277.807 243.28 266.839 231.349C266.461 230.941 266.099 230.541 265.769 230.188L267.492 230.172L267.697 229.63C270.978 221.036 263.637 175.817 260.623 165.104C258.719 158.33 256.295 151.493 253.51 144.947L266.17 147.263C267.917 149.351 268.861 151.548 269.782 153.675C271.292 157.192 272.724 160.504 277.32 162.914C278.264 163.408 279.232 163.651 280.144 163.651C281.482 163.651 282.694 163.126 283.512 162.113C284.59 160.763 284.999 158.189 282.599 155.371C279.531 151.768 279.405 147.239 279.413 146.501C279.656 145.764 280.168 145.363 280.963 145.269C282.489 145.089 284.865 146.195 286.046 148.283C286.643 149.343 288.618 157.113 289.232 160.253L289.154 160.276C289.224 160.528 289.295 160.763 289.366 160.991C289.397 161.21 289.421 161.375 289.421 161.469H289.531C290.837 165.088 292.93 166.093 294.134 166.352C294.465 166.422 294.803 166.461 295.149 166.461C296.809 166.461 298.517 165.614 299.776 164.099C301.105 162.506 301.31 159.617 301.231 157.38C302.065 157.89 303.096 158.165 304.214 158.118C306.621 158.032 309.194 156.344 309.525 152.788C309.572 152.263 309.926 152.058 311.122 151.642C312.57 151.132 314.749 150.363 314.867 147.161C314.962 144.586 314.56 141.988 313.687 139.422L310.288 132.797ZM229.456 75.4991C229.181 76.2133 228.906 76.9119 228.638 77.6105C226.112 84.1879 223.831 90.1218 217.331 97.1388C217.111 97.3821 216.875 97.6255 216.639 97.8688C216.411 98.1121 216.175 98.3554 215.931 98.5988C213.625 100.93 210.856 103.379 207.441 106.024L207.394 106.063L189.8 121.871L176.684 96.2519C177.801 95.5219 178.777 94.9647 179.729 94.4309C180.814 93.8187 181.822 93.2457 182.892 92.4922C183.199 92.2803 183.505 92.0527 183.82 91.8093C184.096 91.5896 184.387 91.362 184.678 91.1108C185.284 90.5928 185.929 89.9962 186.621 89.282C188.84 87.0214 189.108 83.8504 189.359 80.7815C189.714 76.543 190.06 72.4772 195.135 70.2873C195.434 70.1617 195.741 70.0361 196.071 69.9263C196.362 69.8242 196.669 69.73 196.992 69.6437C198.809 69.1257 201.083 68.7882 203.939 68.6704C204.388 68.6547 204.522 68.7411 204.522 68.7411C204.923 69.7379 200.863 74.6592 199.423 75.9936L196.394 77.061L199.73 77.5712C199.934 77.6026 200.06 77.6183 200.281 77.477C201.012 77.1631 201.571 76.4567 202.02 75.8915C202.193 75.6796 202.35 75.4755 202.484 75.3421C205.387 72.3909 208.944 66.4335 212.083 61.1746C214.444 57.2265 217.371 52.3131 218.315 51.9363C219.511 51.5125 221.085 51.1592 221.753 51.8735C222.642 52.8154 222.225 55.8373 220.715 59.3772C220.652 59.5263 220.62 59.6597 220.62 59.7853C218.818 63.2624 215.49 68.5841 213.987 70.9937C212.728 73.0109 212.728 73.0109 212.728 73.2935H214.42C214.42 73.4819 214.357 73.6153 214.341 73.6389C214.412 73.4976 214.9 72.7205 215.419 71.8885C219.361 65.5779 223.052 59.4635 223.469 57.2893C224.381 55.0524 225.184 53.3884 226.286 53.0038C226.537 52.9174 226.813 52.8939 227.104 52.9488C227.12 52.9488 227.127 52.9567 227.143 52.9645C227.458 53.0352 227.725 53.1372 227.946 53.2863C228.198 53.4512 228.394 53.6788 228.544 53.9614C229.999 56.63 227.308 63.3488 226.167 66.2215C226.097 66.4021 226.034 66.5669 225.971 66.716C225.798 67.1556 225.664 67.4931 225.585 67.7442C225.318 68.482 224.987 69.2669 224.625 70.0754C224.256 70.8917 223.846 71.7315 223.406 72.5871C221.635 76.0014 219.354 79.6355 217.19 82.6574C217.009 82.9164 216.828 83.1676 216.647 83.4109C216.458 83.6699 216.269 83.9211 216.08 84.1644C215.789 84.5568 215.498 84.9336 215.215 85.2947C215.057 85.4909 214.994 85.6557 214.955 85.7734C215.034 85.5458 215.246 85.3731 215.411 85.326L215.797 86.9665C216.183 86.8723 216.434 86.6604 216.56 86.3229C217.025 85.7421 217.497 85.1141 217.984 84.447C218.181 84.1801 218.378 83.9054 218.575 83.6307C218.763 83.3638 218.96 83.0891 219.149 82.8144C220.227 81.2681 221.313 79.6041 222.351 77.893L221.887 79.3529L222.729 77.6026L223.665 75.6482C223.736 75.5305 223.807 75.4049 223.87 75.2871C224.279 74.5493 224.673 73.8115 225.05 73.0894C225.9 71.4333 226.632 69.8242 227.167 68.3643C228.52 65.5622 229.48 64.9814 229.826 64.9814C229.858 64.9814 229.889 64.9892 229.905 64.9971C230.826 65.3974 231.644 69.9027 229.456 75.4991ZM224.68 37.6589C224.735 36.8191 225.263 36.1755 225.868 36.2147C226.474 36.254 226.915 36.9604 226.868 37.8002C226.813 38.6401 226.286 39.2837 225.68 39.2444C225.074 39.2052 224.625 38.4988 224.68 37.6589ZM167.525 89.6509L180.476 92.0448C179.957 92.3588 179.43 92.657 178.887 92.9632C177.872 93.5361 176.739 94.1797 175.425 95.0588L175.417 95.0431L121.558 130.882C123.352 124.508 126.169 112.805 127.798 104.297C127.861 103.983 127.916 103.677 127.971 103.371C128.034 103.041 128.089 102.727 128.144 102.413C128.514 100.357 128.789 98.5595 128.939 97.1624C129.922 96.9112 130.591 96.9191 131.606 96.9505C131.936 96.9583 132.298 96.9662 132.707 96.9662C134.273 96.9662 134.989 95.7653 135.745 94.4937C136.099 93.8972 136.508 93.2143 137.082 92.5158C137.594 91.8878 138.247 91.2521 139.104 90.6555C139.514 90.373 139.978 90.0983 140.497 89.8392C144.573 87.8299 152.166 86.8095 167.525 89.6509ZM141.677 77.0061C140.71 80.8757 139.624 85.2476 139.128 88.654C136.358 90.1924 135.186 92.1626 134.305 93.6303C133.581 94.8469 133.274 95.2708 132.723 95.2708C132.33 95.2708 131.984 95.2629 131.661 95.2551C130.827 95.2315 130.111 95.2158 129.238 95.365C130.725 85.5066 126.185 76.5508 118.104 73.529C118.198 71.7629 118.348 70.0205 118.56 68.3251C119.095 64.0395 119.497 57.8859 119.764 51.9912C121.692 51.8107 123.47 50.7904 125.193 49.8014C126.224 49.2048 127.2 48.6476 128.128 48.3258C132.432 46.8109 131.574 40.4375 130.748 34.276C130.323 31.1364 129.93 28.1695 130.292 26.2935C131.488 25.0691 142.26 22.1571 147.114 21.0896C149.632 23.9153 151.938 27.6043 153.858 32.0155C152.284 33.4283 151.277 35.4848 151.277 37.7767C151.277 41.6933 154.18 44.9271 157.918 45.3981C158.744 49.6915 159.247 54.3381 159.342 59.283C159.491 67.1556 148.688 68.5841 145.139 69.055C143.865 69.2277 143.338 69.2905 143.251 70.0048C143.086 71.3783 142.433 73.9842 141.677 77.0061ZM164.732 37.7688C164.732 40.9163 162.34 43.4986 159.318 43.7419C159.169 43.7576 159.011 43.7655 158.854 43.7655C158.728 43.7655 158.602 43.7576 158.476 43.7419C158.161 43.7184 157.855 43.6791 157.564 43.6085C154.943 43.0041 152.984 40.618 152.984 37.761C152.984 36.1833 153.59 34.7469 154.566 33.6795C154.778 33.4519 155.006 33.2321 155.25 33.0359C155.471 32.8553 155.707 32.6984 155.958 32.5492C156.816 32.0469 157.807 31.7565 158.862 31.7565C162.096 31.7722 164.732 34.4644 164.732 37.7688ZM116.365 74.7299C116.593 74.7927 116.829 74.8633 117.049 74.9418C117.097 74.9575 117.144 74.981 117.191 74.9967C117.474 75.0988 117.758 75.2008 118.033 75.3185C125.012 78.2384 128.876 86.2365 127.577 95.051C126.303 94.8783 123.604 94.5801 120.095 94.5644C119.803 94.5644 119.512 94.5644 119.205 94.5644C118.906 94.5644 118.6 94.5722 118.293 94.58C111.022 94.7527 101.116 96.2362 93.0196 101.982C85.9302 107.021 81.5082 114.485 79.8873 124.179L79.8795 124.234C79.848 124.555 79.8087 124.901 79.7614 125.27C79.6906 125.764 79.6119 126.306 79.5175 126.879C79.431 127.365 79.3444 127.876 79.2421 128.417C78.8644 130.442 78.3609 132.789 77.818 135.34C75.1191 148.001 71.1928 166.399 75.0798 177.301L44.8103 177.324C47.3046 171.862 50.3417 165.025 53.5363 157.82C59.7287 143.872 66.6685 128.229 73.3487 114.21C73.514 113.865 73.6713 113.528 73.8366 113.182C74.0018 112.837 74.1671 112.499 74.3244 112.162C74.6628 111.455 75.0011 110.749 75.3394 110.05C90.0926 79.5806 106.057 71.8179 116.365 74.7299ZM106.317 276.458C106.325 275.908 106.325 275.343 106.333 274.77C106.388 269.786 106.49 264.08 106.585 258.907C106.789 247.612 106.884 240.572 106.86 236.153C106.86 235.862 106.86 235.58 106.852 235.305C106.852 235.007 106.844 234.732 106.844 234.457C106.789 230.643 106.624 229.371 106.333 228.885C106.207 228.163 106.333 225.251 106.451 222.425C106.923 211.154 107.128 200.793 104.405 197.967C103.894 197.434 103.264 197.151 102.595 197.151V198.839C102.737 198.839 102.934 198.87 103.185 199.129C105.633 201.672 105.066 215.125 104.759 222.354C104.618 225.659 104.555 227.44 104.602 228.477L92.6576 228.484C72.1449 230.761 56.8331 226.302 48.3825 215.604C41.0493 206.319 39.3969 192.387 44.0077 179.098C44.0156 179.067 44.0235 179.043 44.0392 179.012L75.7565 178.988H76.7007H77.6527L100.227 178.973H101.14H101.864C101.927 178.973 101.989 178.981 102.052 178.973C102.281 178.949 102.54 178.808 102.989 178.204C103.154 177.984 103.335 177.709 103.555 177.364C104.594 175.692 106.372 172.317 109.685 165.504C112.871 158.966 116.152 151.933 116.853 150.402C122.683 137.765 138.034 118.771 152.449 118.135C159.224 117.829 164.983 121.738 169.571 129.72C170.145 130.725 170.711 131.745 171.27 132.773C171.64 133.464 172.01 134.155 172.372 134.853C172.742 135.576 173.111 136.298 173.473 137.028C174.347 138.786 175.196 140.575 176.015 142.381C176.133 142.64 176.243 142.899 176.361 143.158C176.479 143.417 176.589 143.676 176.707 143.935C179.398 150.073 181.735 156.438 183.647 162.796C183.765 163.196 183.883 163.597 184.001 163.997C184.119 164.405 184.237 164.805 184.347 165.213C186.763 173.745 188.376 182.191 188.974 189.914C189.336 194.498 190.146 205.989 190.98 219.576C190.996 219.858 191.012 220.141 191.035 220.423C191.051 220.706 191.067 220.989 191.09 221.271C192.688 247.722 194.285 281.214 192.743 287.627H179.886H153.441H151.717H106.498C106.467 287.415 106.443 287.132 106.427 286.803C106.301 284.872 106.286 281.065 106.317 276.458ZM196.882 184.145L198.518 184.553C198.66 184.004 198.786 183.682 198.88 183.502C199.234 183.933 199.864 185.189 200.91 188.69C201.052 189.169 201.115 189.381 201.17 189.514C202.185 192.026 203.113 207.182 203.743 217.574L192.672 219.301C191.657 202.952 190.697 190.111 190.673 189.773C190.02 181.398 188.195 172.191 185.457 162.929C188.211 157.207 190.776 151.713 191.389 150.387C193.506 145.811 196.866 140.395 200.981 135.324C201.186 135.073 201.39 134.83 201.595 134.579C201.799 134.328 202.012 134.084 202.216 133.833C209.29 125.537 218.307 118.496 226.994 118.111C233.768 117.805 239.528 121.714 244.115 129.697C246.444 133.762 248.663 138.142 250.701 142.695C250.843 143.001 250.976 143.315 251.11 143.629C251.244 143.943 251.386 144.249 251.519 144.563C254.462 151.352 257.011 158.487 258.994 165.543C262.252 177.136 268.798 219.419 266.288 228.477L264.345 228.492L263.904 228.469H205.222L205.497 217.292L205.419 217.307C204.569 203.211 203.774 191.437 202.736 188.878C202.704 188.808 202.61 188.486 202.531 188.211C201.272 183.965 200.304 181.657 198.825 181.657C198.817 181.657 198.809 181.657 198.794 181.657C197.495 181.696 197.047 183.478 196.882 184.145ZM265.155 145.355L252.7 143.079C250.504 138.095 248.112 133.307 245.571 128.88C240.653 120.301 234.374 116.118 226.915 116.447C217.512 116.863 207.787 124.595 200.336 133.511L195.371 132.601L195.489 132.53L190.611 123.417L208.503 107.335C212.366 104.344 215.435 101.581 217.937 98.9677L273.236 109.187L265.155 145.355ZM189.32 124.571L193.246 131.91L192.869 132.138L191.783 132.797L190.697 133.456L177.47 141.494C176.038 138.331 174.512 135.23 172.907 132.24C172.545 131.565 172.175 130.89 171.797 130.222C171.546 129.767 171.294 129.32 171.034 128.872C170.924 128.676 170.806 128.488 170.696 128.292C165.825 120.105 159.664 116.118 152.378 116.432C137.255 117.099 121.322 136.667 115.318 149.68C111.243 158.518 103.217 175.26 101.588 177.277H101.344H100.432H99.5188L76.858 177.293C72.7665 167.019 76.74 148.393 79.4546 135.678C79.7929 134.108 80.1077 132.609 80.3988 131.211C80.5011 130.701 80.6033 130.207 80.6978 129.728C80.8001 129.21 80.8945 128.7 80.9889 128.221C81.2564 126.761 81.461 125.474 81.5633 124.414C83.1133 115.199 87.2993 108.112 93.9953 103.347C101.848 97.7668 111.73 96.4089 118.836 96.2833C119.15 96.2754 119.465 96.2754 119.764 96.2754C120.071 96.2754 120.378 96.2754 120.669 96.2754C123.745 96.3068 126.114 96.5501 127.278 96.6993C127.286 96.6993 127.302 96.6993 127.31 96.6993C127.278 97.0054 127.239 97.3351 127.2 97.6804C127.027 99.0697 126.751 100.789 126.397 102.712C126.35 102.986 126.295 103.269 126.24 103.551C126.185 103.826 126.137 104.101 126.082 104.383C124.257 113.826 120.999 127.067 119.339 132.483C114.776 135.717 104.68 142.734 103.429 143.362C102.894 143.629 102.399 143.982 101.911 144.319C101.014 144.947 100.172 145.544 99.2434 145.544V147.231C100.699 147.231 101.856 146.415 102.879 145.701C103.335 145.379 103.76 145.081 104.185 144.869C105.412 144.249 120.346 133.951 122.526 132.248L174.811 97.4606L188.801 123.606L189.296 124.579L189.32 124.571ZM193.199 133.919L199.116 135.003C195.151 139.987 191.917 145.23 189.847 149.696C188.462 152.702 186.621 156.619 184.725 160.559C182.884 154.649 180.673 148.754 178.163 143.056L193.199 133.919ZM309.249 150.583C308.864 148.118 308.045 144.139 306.96 140.552L311.932 139.712C312.806 142.145 313.238 144.625 313.144 147.098C313.065 149.154 311.94 149.555 310.524 150.057C310.115 150.198 309.666 150.355 309.249 150.583ZM300.925 154.335C300.893 151.768 299.595 146.8 297.801 142.09L305.276 140.834C306.731 145.661 307.786 151.493 307.801 152.679C307.534 155.355 305.724 156.383 304.119 156.438C302.726 156.493 301.192 155.779 300.925 154.335ZM266.823 145.661L273.928 113.834C288.744 116.157 301.719 123.818 308.392 133.095L304.04 133.786C303.93 133.637 303.812 133.503 303.702 133.386L303.128 133.935L294.701 135.277C293.741 133.574 292.765 132.216 291.852 131.463L290.782 132.766C294.331 135.67 299.249 149.931 299.249 154.437H299.98L299.256 154.578C299.264 154.633 299.272 154.68 299.288 154.735C299.477 155.834 300.059 161.108 298.462 163.024C297.352 164.358 295.826 165.001 294.488 164.703C292.985 164.374 291.758 162.898 290.987 160.528C290.46 157.443 288.264 148.785 287.517 147.451C286.14 145.002 283.166 143.307 280.766 143.589C279.271 143.762 278.169 144.688 277.752 146.132L277.721 146.227L277.713 146.329C277.705 146.556 277.532 152.027 281.301 156.454C283.04 158.495 282.898 160.166 282.182 161.053C281.482 161.933 279.94 162.38 278.098 161.414C274.031 159.287 272.78 156.375 271.332 153.008C270.277 150.559 269.192 148.032 266.941 145.567L266.823 145.661ZM247.42 317.273C248.081 315.781 248.144 312.767 248.034 306.394C248.002 304.651 247.979 270.437 247.979 268.899C247.979 268.342 247.986 267.761 247.994 267.172C248.049 263.499 248.12 259.182 245.886 256.874C247.491 256.859 249.151 256.835 250.795 256.835C253.431 256.835 256.004 256.882 258.137 257.047C262.401 257.377 265.092 258.311 265.289 261.953C265.8 271.309 265.635 284.362 265.478 296.991C265.407 302.399 265.344 307.508 265.336 312.116V312.508C265.336 316.087 265.336 317.045 261.764 317.178C257.672 317.335 252.581 317.351 247.42 317.273ZM237.136 256.733C238.647 256.835 239.953 256.921 240.834 256.921C241.149 256.921 241.479 256.921 241.81 256.921C246.129 257.165 246.397 261.317 246.31 267.149C246.303 267.745 246.295 268.334 246.295 268.899C246.295 269.244 246.318 304.62 246.35 306.425C246.444 312.029 246.366 314.729 246.067 316.056C245.862 316.943 245.768 316.959 244.886 317.092C244.682 317.123 244.453 317.163 244.202 317.21C233.76 316.974 223.791 316.393 221.895 315.844L221.856 315.64L221.706 315.616C221.266 313.654 220.919 303.631 221.069 287.156C221.203 272.07 221.69 259.629 222.21 258.209C223.06 255.807 232.564 256.435 237.136 256.733ZM98.669 274.77L103.225 244.167C104.035 244.096 104.657 244.018 105.129 243.939C105.074 248.696 104.979 254.025 104.893 258.876C104.775 265.547 104.688 270.728 104.649 274.77H98.669ZM75.8666 244.489C79.9818 244.528 83.5461 244.543 86.6305 244.543C93.9323 244.543 98.5589 244.449 101.502 244.284L91.4066 312.061C91.3358 312.014 91.2807 311.974 91.2728 311.974C91.2807 312.076 89.4867 313.811 88.5268 314.879C87.795 314.259 86.7485 313.411 85.9617 312.799L75.8666 244.489ZM34.9828 240.093C40.6558 242.864 47.4305 244.23 55.4168 244.23C56.1879 244.23 58.1471 244.261 60.846 244.3C65.803 244.371 70.2172 244.426 74.1592 244.465L78.9195 276.693H28.0665L34.9828 240.093ZM74.5762 107.751C74.3166 108.269 74.0648 108.787 73.8051 109.321C73.4983 109.956 73.1835 110.608 72.8688 111.259C62.2387 110.537 35.8876 110.726 29.7739 112.123C22.4879 113.787 18.2232 115.317 15.131 119.085C7.50655 128.347 9.83557 142.137 12.259 151.697C15.8863 166.045 26.9177 209.694 38.9327 221.923C39.7274 222.731 40.349 223.375 40.8604 223.893C43.1108 226.2 43.158 226.24 45.6129 228.186C46.2345 228.681 47.0134 229.293 48.0285 230.101C54.6221 235.368 61.861 236.357 74.6392 236.498C76.1184 236.514 77.7629 236.522 79.5097 236.522C84.5847 236.522 90.486 236.467 95.4824 236.42C99.149 236.388 102.312 236.357 104.303 236.357H104.366L105.168 236.294C105.176 238.06 105.168 240.077 105.145 242.259C102.438 242.903 87.913 242.911 75.607 242.809L75.5912 242.715L74.9775 242.801C69.2415 242.746 64.0484 242.675 60.8538 242.628C58.1471 242.589 56.1879 242.558 55.4011 242.558C47.4934 242.558 40.8289 241.176 35.2975 238.366L35.3368 238.147L34.6208 238.005C30.8912 236.004 27.6888 233.327 24.9742 229.96C18.1288 221.46 14.9106 209.191 12.6682 198.321C7.5931 173.714 2.00658 137.608 1.69972 129.618C1.31417 119.579 10.9371 109.846 22.7239 108.371C32.2839 107.178 62.2387 106.848 74.5762 107.751Z" fill="black"/>
<path d="M306.959 131.251C306.959 131.251 310.17 134.823 311.932 139.713C313.702 144.603 306.959 140.552 306.959 140.552L302.474 130.482L306.959 131.251Z" fill="white"/>
<path d="M305.401 141.251C305.401 141.251 302.884 134.163 301.908 132.829C300.932 131.503 294.693 135.27 294.693 135.27L298.17 143.08L305.401 141.251Z" fill="white"/>
<path d="M305.039 133.033L301.554 134.776L300.374 132.162L305.039 133.033Z" fill="white"/>
<path d="M223.154 53.6559C223.154 53.6559 223.72 51.6779 228.205 51.5131L230.259 37.7695C230.259 37.7695 231.337 31.8513 226.049 31.1135C221.808 30.517 206.945 28.853 206.945 28.853C206.945 28.853 202.893 27.8405 201.366 33.0208L195.512 68.3414C195.512 68.3414 199.769 66.3949 203.231 66.7795C206.693 67.1641 206.386 67.6978 206.386 67.6978L209.691 61.4814L214.538 53.6559C214.538 53.6559 216.23 49.5901 218.614 49.5901C220.998 49.5901 221.541 49.8962 222.383 50.6654C223.232 51.4268 223.154 53.6559 223.154 53.6559Z" fill="#3B82F6"/>
<path d="M225.798 39.5355C226.419 39.5355 226.923 38.7835 226.923 37.8558C226.923 36.9282 226.419 36.1761 225.798 36.1761C225.176 36.1761 224.672 36.9282 224.672 37.8558C224.672 38.7835 225.176 39.5355 225.798 39.5355Z" fill="white"/>
<path d="M72.8765 111.26C62.3408 109.965 41.5605 111.126 34.4554 111.519C27.4605 111.904 12.7782 114.274 10.5829 128.944C8.38762 143.629 14.0292 160.308 14.0292 160.308C14.0292 160.308 24.856 197.764 27.5706 203.902C30.2852 210.04 37.6972 223.43 45.833 229.176C57.2264 237.221 64.9216 236.758 71.4759 237.182C80.9258 237.786 105.176 236.295 105.176 236.295L104.712 229.866C104.712 229.866 81.2169 230.785 77.0152 230.408C64.5046 229.286 44.8023 225.424 40.9074 203.698C37.0126 181.972 45.0462 170.983 50.137 161.337C52.0254 157.75 70.3429 116.103 72.8765 111.26Z" fill="#3B82F6"/>
<path d="M145.754 58C144.814 58 143.874 57.8065 142.996 57.4268C140.803 56.4814 139.306 54.531 139 52.2084L140.666 52C140.895 53.7494 142.025 55.2233 143.676 55.9305C144.868 56.4442 146.212 56.5037 147.442 56.0794L147.992 57.6278C147.267 57.8809 146.51 58 145.754 58Z" fill="black"/>
</g>
<defs>
<clipPath id="clip0">
<rect width="327" height="319" fill="white"/>
</clipPath>
</defs>
</svg>
